<svg width="41" height="41" viewBox="0 0 41 41" fill="none" xmlns="http://www.w3.org/2000/svg">
<path d="M17.6133 35.5C17.9059 36.0067 18.3267 36.4275 18.8334 36.72C19.3401 37.0126 19.9149 37.1666 20.5 37.1666C21.0851 37.1666 21.6599 37.0126 22.1666 36.72C22.6733 36.4275 23.0941 36.0067 23.3867 35.5M5.93667 26.0434C5.71894 26.282 5.57526 26.5788 5.5231 26.8976C5.47093 27.2164 5.51254 27.5435 5.64285 27.839C5.77316 28.1346 5.98656 28.386 6.2571 28.5625C6.52763 28.739 6.84363 28.8331 7.16667 28.8334H33.8333C34.1563 28.8335 34.4724 28.7398 34.7431 28.5636C35.0138 28.3874 35.2275 28.1363 35.3582 27.8409C35.4888 27.5455 35.5308 27.2185 35.4791 26.8997C35.4273 26.5809 35.2841 26.2839 35.0667 26.045C32.85 23.76 30.5 21.3317 30.5 13.8334C30.5 11.1812 29.4464 8.63767 27.5711 6.76231C25.6957 4.88694 23.1522 3.83337 20.5 3.83337C17.8478 3.83337 15.3043 4.88694 13.4289 6.76231C11.5536 8.63767 10.5 11.1812 10.5 13.8334C10.5 21.3317 8.14834 23.76 5.93667 26.0434Z" stroke="black" stroke-width="2" stroke-linecap="round" stroke-linejoin="round"/>
</svg>
