<svg width="22" height="22" viewBox="0 0 22 22" fill="none" xmlns="http://www.w3.org/2000/svg">
<path d="M12.7163 0.947449L16.4506 2.38092L15.7339 4.24808L14.8003 3.88947L14.0539 5.83436C14.8328 6.29585 15.4983 6.92847 15.9986 7.68044L17.9014 6.83255L17.4947 5.919L19.3218 5.10553L20.9487 8.75971L19.1216 9.5732L18.7149 8.65964L16.8126 9.5071C16.9348 9.9844 16.9998 10.4846 16.9998 11C16.9998 11.4062 16.9594 11.8031 16.8825 12.1867L18.8265 12.9327L19.1852 11.9998L21.0523 12.7165L19.6189 16.4508L17.7517 15.7341L18.1094 14.8009L16.1654 14.0541C15.7039 14.833 15.0713 15.4985 14.3194 15.9988L15.1672 17.9016L16.0808 17.4949L16.8943 19.322L13.2401 20.9489L12.4266 19.1218L13.3402 18.7151L12.4927 16.8128C12.0154 16.935 11.5152 17 10.9998 17C10.5932 17 10.196 16.9595 9.8121 16.8825L9.0662 18.8271L10 19.1854L9.2833 21.0525L5.54897 19.6191L6.2657 17.7519L7.19803 18.11L7.9457 16.1656C7.16683 15.7041 6.50133 15.0715 6.00097 14.3195L4.09818 15.1674L4.50492 16.081L2.67782 16.8944L1.05088 13.2403L2.87797 12.4268L3.28379 13.3407L5.18702 12.4929C5.06479 12.0156 4.99981 11.5154 4.99981 11C4.99981 10.5937 5.04018 10.1969 5.11714 9.8133L3.17174 9.0668L2.81443 10.0002L0.947266 9.2835L2.38074 5.54915L4.2479 6.26588L3.88888 7.19862L5.83418 7.94588C6.29566 7.16702 6.92829 6.50151 7.68026 6.00115L6.83237 4.09836L5.91882 4.5051L5.10535 2.67801L8.75953 1.05106L9.573 2.87815L8.65946 3.28489L9.5069 5.1872C9.98419 5.06497 10.4844 4.99999 10.9998 4.99999C11.4061 4.99999 11.8029 5.04037 12.1865 5.11732L12.9321 3.17233L11.9996 2.81461L12.7163 0.947449ZM10.9998 6.99999C8.79066 6.99999 6.99981 8.79085 6.99981 11C6.99981 13.2091 8.79066 15 10.9998 15C13.2089 15 14.9998 13.2091 14.9998 11C14.9998 8.79085 13.2089 6.99999 10.9998 6.99999ZM10.4998 11.866C10.9781 12.1422 11.142 12.7537 10.8658 13.232C10.5897 13.7103 9.9781 13.8742 9.49979 13.5981C9.02149 13.3219 8.85763 12.7103 9.13379 12.232C9.40989 11.7537 10.0215 11.5899 10.4998 11.866ZM12.9998 10C13.5521 10 13.9998 10.4477 13.9998 11C13.9998 11.5523 13.5521 12 12.9998 12C12.4475 12 11.9998 11.5523 11.9998 11C11.9998 10.4477 12.4475 10 12.9998 10ZM10.8658 8.76794C11.142 9.2462 10.9781 9.8578 10.4998 10.134C10.0215 10.4101 9.40989 10.2462 9.13379 9.7679C8.85763 9.2896 9.02149 8.67806 9.49979 8.40191C9.9781 8.12577 10.5897 8.28965 10.8658 8.76794Z" fill="black"/>
</svg>
