<svg width="26" height="26" viewBox="0 0 26 26" fill="none" xmlns="http://www.w3.org/2000/svg">
<path d="M7.58326 22.75C6.98742 22.75 6.47753 22.538 6.05359 22.1141C5.62964 21.6901 5.41731 21.1799 5.41659 20.5833V6.5C5.10964 6.5 4.85253 6.396 4.64526 6.188C4.43798 5.98 4.33398 5.72289 4.33326 5.41667C4.33253 5.11044 4.43653 4.85333 4.64526 4.64533C4.85398 4.43733 5.11109 4.33333 5.41659 4.33333H9.74992C9.74992 4.02639 9.85392 3.76928 10.0619 3.562C10.2699 3.35472 10.527 3.25072 10.8333 3.25H15.1666C15.4735 3.25 15.731 3.354 15.939 3.562C16.147 3.77 16.2506 4.02711 16.2499 4.33333H20.5833C20.8902 4.33333 21.1477 4.43733 21.3557 4.64533C21.5637 4.85333 21.6673 5.11044 21.6666 5.41667C21.6659 5.72289 21.5619 5.98036 21.3546 6.18908C21.1473 6.39781 20.8902 6.50144 20.5833 6.5V20.5833C20.5833 21.1792 20.3713 21.6894 19.9473 22.1141C19.5234 22.5388 19.0131 22.7507 18.4166 22.75H7.58326ZM18.4166 6.5H7.58326V20.5833H18.4166V6.5ZM10.8333 18.4167C11.1402 18.4167 11.3977 18.3127 11.6057 18.1047C11.8137 17.8967 11.9173 17.6396 11.9166 17.3333V9.75C11.9166 9.44306 11.8126 9.18594 11.6046 8.97867C11.3966 8.77139 11.1395 8.66739 10.8333 8.66667C10.527 8.66594 10.2699 8.76994 10.0619 8.97867C9.85392 9.18739 9.74992 9.4445 9.74992 9.75V17.3333C9.74992 17.6403 9.85392 17.8977 10.0619 18.1058C10.2699 18.3138 10.527 18.4174 10.8333 18.4167ZM15.1666 18.4167C15.4735 18.4167 15.731 18.3127 15.939 18.1047C16.147 17.8967 16.2506 17.6396 16.2499 17.3333V9.75C16.2499 9.44306 16.1459 9.18594 15.9379 8.97867C15.7299 8.77139 15.4728 8.66739 15.1666 8.66667C14.8604 8.66594 14.6033 8.76994 14.3953 8.97867C14.1873 9.18739 14.0833 9.4445 14.0833 9.75V17.3333C14.0833 17.6403 14.1873 17.8977 14.3953 18.1058C14.6033 18.3138 14.8604 18.4174 15.1666 18.4167Z" fill="black"/>
</svg>
