<svg width="212" height="28" viewBox="0 0 212 28" fill="none" xmlns="http://www.w3.org/2000/svg">
<path d="M5.4 1.6H22.24L21.6 4.64H13.4L11.84 11.96H18.68L18.04 15.04H11.2L8.64 27H0L5.4 1.6ZM21.5519 11.28C22.9119 10.6133 24.2985 10.1333 25.7119 9.84C27.1519 9.52 28.7519 9.36 30.5119 9.36C32.2185 9.36 33.6319 9.49333 34.7519 9.76C35.8719 10.0267 36.7652 10.4133 37.4319 10.92C38.0985 11.4267 38.5652 12.0267 38.8319 12.72C39.0985 13.4133 39.2319 14.2 39.2319 15.08C39.2319 15.5867 39.1919 16.1333 39.1119 16.72C39.0585 17.3067 38.9919 17.8 38.9119 18.2L37.0319 27H30.5919L29.8719 24.44H29.6319C28.7785 25.3733 27.7785 26.0933 26.6319 26.6C25.5119 27.08 24.3919 27.32 23.2719 27.32C22.6319 27.32 22.0052 27.2267 21.3919 27.04C20.7785 26.8533 20.2319 26.5733 19.7519 26.2C19.2719 25.8 18.8852 25.3067 18.5919 24.72C18.2985 24.1067 18.1519 23.3733 18.1519 22.52C18.1519 21.1333 18.5252 20.04 19.2719 19.24C20.0452 18.4133 21.0452 17.8 22.2719 17.4C23.5252 16.9733 24.9252 16.7067 26.4719 16.6C28.0452 16.4933 29.6185 16.44 31.1919 16.44C31.2452 16.1733 31.3119 15.8 31.3919 15.32C31.4719 14.8133 31.5119 14.3733 31.5119 14C31.5119 13.52 31.3785 13.08 31.1119 12.68C30.8719 12.2533 30.3519 12.04 29.5519 12.04C28.6185 12.04 27.9252 12.32 27.4719 12.88C27.0452 13.4133 26.7652 14.0667 26.6319 14.84H20.7919L21.5519 11.28ZM30.7519 18.32H30.0319C29.2585 18.32 28.5919 18.4267 28.0319 18.64C27.4985 18.8267 27.0585 19.08 26.7119 19.4C26.3919 19.72 26.1519 20.08 25.9919 20.48C25.8319 20.88 25.7519 21.28 25.7519 21.68C25.7519 22.32 25.9119 22.8 26.2319 23.12C26.5785 23.44 26.9785 23.6 27.4319 23.6C27.9919 23.6 28.5385 23.4 29.0719 23C29.6319 22.6 29.9785 22.0667 30.1119 21.4L30.7519 18.32ZM43.9822 9.8H50.5022L51.1022 12.8H51.3822C51.9955 11.84 52.7822 11.0267 53.7422 10.36C54.7022 9.69333 55.9689 9.36 57.5422 9.36C57.6489 9.36 57.8089 9.37333 58.0222 9.4C58.2622 9.4 58.5155 9.44 58.7822 9.52C59.0755 9.57333 59.3689 9.66667 59.6622 9.8C59.9822 9.90667 60.2889 10.0667 60.5822 10.28L58.8222 18.52H54.4622C54.4089 16.8667 54.2622 15.72 54.0222 15.08C53.7822 14.4133 53.3955 14.08 52.8622 14.08C52.5955 14.08 52.3022 14.1467 51.9822 14.28C51.6889 14.3867 51.3822 14.64 51.0622 15.04L48.5022 27H40.3422L43.9822 9.8ZM70.7981 12.36C71.3581 11.8267 71.9848 11.3333 72.6781 10.88C73.2915 10.5067 74.0248 10.16 74.8781 9.84C75.7315 9.52 76.6915 9.36 77.7581 9.36C79.0381 9.36 79.9848 9.65333 80.5981 10.24C81.2381 10.8267 81.5981 11.5467 81.6781 12.4H81.9181C82.5315 11.84 83.1981 11.3333 83.9181 10.88C84.5315 10.5067 85.2515 10.16 86.0781 9.84C86.9048 9.52 87.7848 9.36 88.7181 9.36C90.1048 9.36 91.2248 9.74667 92.0781 10.52C92.9581 11.2667 93.3981 12.24 93.3981 13.44C93.3981 14.0533 93.2915 14.8667 93.0781 15.88C92.8648 16.8933 92.6248 18 92.3581 19.2L90.6781 27H82.7981L84.9581 16.56C85.0381 16.16 85.1181 15.7733 85.1981 15.4C85.2781 15.0267 85.3181 14.72 85.3181 14.48C85.3181 14.1067 85.2115 13.8 84.9981 13.56C84.7848 13.2933 84.4781 13.16 84.0781 13.16C83.5715 13.16 83.0915 13.3467 82.6381 13.72C82.2115 14.0667 81.8781 14.36 81.6381 14.6L79.0381 27H71.5581L73.7581 16.56C73.8115 16.2133 73.8781 15.8667 73.9581 15.52C74.0381 15.1467 74.0781 14.8133 74.0781 14.52C74.0781 14.12 73.9715 13.8 73.7581 13.56C73.5715 13.2933 73.2781 13.16 72.8781 13.16C72.3981 13.16 71.9315 13.3333 71.4781 13.68C71.0515 14.0267 70.7181 14.32 70.4781 14.56L67.8381 27H59.6781L63.3181 9.8H69.8381L70.5581 12.36H70.7981ZM110.291 8.96C110.371 8.56 110.411 8.01333 110.411 7.32C110.411 6.92 110.385 6.53333 110.331 6.16C110.278 5.76 110.185 5.41333 110.051 5.12C109.918 4.8 109.718 4.56 109.451 4.4C109.185 4.21333 108.838 4.12 108.411 4.12C107.931 4.12 107.491 4.22667 107.091 4.44C106.691 4.65333 106.331 4.93333 106.011 5.28C105.718 5.6 105.478 5.98667 105.291 6.44C105.131 6.86667 105.051 7.32 105.051 7.8C105.051 8.49333 105.225 9.02667 105.571 9.4C105.945 9.77333 106.425 10.08 107.011 10.32C107.598 10.56 108.265 10.76 109.011 10.92C109.758 11.08 110.531 11.2667 111.331 11.48C111.998 11.6667 112.665 11.9067 113.331 12.2C113.998 12.4933 114.585 12.8933 115.091 13.4C115.625 13.88 116.051 14.52 116.371 15.32C116.691 16.0933 116.851 17.0667 116.851 18.24C116.851 19.92 116.518 21.3333 115.851 22.48C115.185 23.6267 114.265 24.56 113.091 25.28C111.918 26 110.518 26.52 108.891 26.84C107.291 27.16 105.545 27.32 103.651 27.32C101.731 27.32 100.158 27.2 98.9313 26.96C97.7313 26.6933 96.7846 26.4133 96.0913 26.12C95.2646 25.7733 94.6513 25.3733 94.2512 24.92L95.6113 19.44H102.651C102.625 19.68 102.598 20.0133 102.571 20.44C102.545 20.84 102.531 21.16 102.531 21.4C102.531 21.72 102.571 22.0533 102.651 22.4C102.731 22.7467 102.851 23.0667 103.011 23.36C103.198 23.6533 103.451 23.8933 103.771 24.08C104.091 24.2667 104.491 24.36 104.971 24.36C105.505 24.36 105.971 24.24 106.371 24C106.798 23.76 107.145 23.4667 107.411 23.12C107.705 22.7467 107.918 22.3467 108.051 21.92C108.211 21.4667 108.291 21.0267 108.291 20.6C108.291 20.0133 108.145 19.52 107.851 19.12C107.585 18.72 107.211 18.3867 106.731 18.12C106.251 17.8267 105.691 17.5867 105.051 17.4C104.438 17.1867 103.798 16.9733 103.131 16.76C102.491 16.5733 101.811 16.3467 101.091 16.08C100.398 15.8133 99.7579 15.44 99.1713 14.96C98.5846 14.48 98.0913 13.88 97.6913 13.16C97.3179 12.4133 97.1313 11.4667 97.1313 10.32C97.1313 8.61333 97.5579 7.18667 98.4113 6.04C99.2913 4.86667 100.385 3.92 101.691 3.2C103.025 2.48 104.478 1.97333 106.051 1.68C107.625 1.36 109.118 1.2 110.531 1.2C112.398 1.2 113.998 1.42667 115.331 1.88C116.691 2.30667 117.718 2.81333 118.411 3.4L116.931 8.96H110.291ZM128.888 12.36H129.168C129.674 11.8533 130.261 11.3867 130.928 10.96C131.488 10.5867 132.154 10.2533 132.928 9.96C133.701 9.66667 134.568 9.52 135.528 9.52C136.914 9.52 138.061 9.88 138.968 10.6C139.874 11.2933 140.328 12.2533 140.328 13.48C140.328 13.8533 140.288 14.28 140.208 14.76C140.128 15.2133 140.034 15.7067 139.928 16.24C139.821 16.7467 139.701 17.2667 139.568 17.8C139.461 18.3067 139.368 18.7733 139.288 19.2L137.608 27H129.488L131.688 16.56C131.741 16.2133 131.808 15.8667 131.888 15.52C131.968 15.1467 132.008 14.8133 132.008 14.52C132.008 14.12 131.901 13.8 131.688 13.56C131.501 13.2933 131.208 13.16 130.808 13.16C130.328 13.16 129.861 13.3333 129.408 13.68C128.981 14.0267 128.648 14.3333 128.408 14.6L125.768 27H117.608L123.288 0.119998H131.488L128.888 12.36ZM149.165 27H141.045L144.685 9.8H152.885L149.165 27ZM153.925 4.56C153.925 5.17333 153.792 5.70667 153.525 6.16C153.285 6.61333 152.952 7 152.525 7.32C152.125 7.64 151.659 7.88 151.125 8.04C150.592 8.2 150.045 8.28 149.485 8.28C148.419 8.28 147.525 8.02667 146.805 7.52C146.085 7.01333 145.725 6.21333 145.725 5.12C145.725 4.53333 145.845 4.01333 146.085 3.56C146.325 3.08 146.645 2.69333 147.045 2.4C147.472 2.08 147.952 1.84 148.485 1.68C149.045 1.52 149.619 1.44 150.205 1.44C151.245 1.44 152.125 1.69333 152.845 2.2C153.565 2.70667 153.925 3.49333 153.925 4.56ZM161.884 18.96C161.777 19.5467 161.697 20.1067 161.644 20.64C161.617 21.1733 161.604 21.6533 161.604 22.08C161.604 22.32 161.617 22.5867 161.644 22.88C161.671 23.1733 161.724 23.4533 161.804 23.72C161.911 23.96 162.044 24.1733 162.204 24.36C162.391 24.52 162.644 24.6 162.964 24.6C163.204 24.6 163.471 24.52 163.764 24.36C164.084 24.2 164.391 23.9733 164.684 23.68C165.004 23.3867 165.297 23.0267 165.564 22.6C165.857 22.1733 166.084 21.6933 166.244 21.16H172.804L171.764 25.44C171.231 25.7867 170.617 26.08 169.924 26.32C169.231 26.56 168.497 26.76 167.724 26.92C166.951 27.0533 166.164 27.1467 165.364 27.2C164.564 27.28 163.804 27.32 163.084 27.32C161.751 27.32 160.511 27.2 159.364 26.96C158.217 26.72 157.217 26.3067 156.364 25.72C155.511 25.1333 154.831 24.36 154.324 23.4C153.844 22.4133 153.604 21.2 153.604 19.76C153.604 18.4533 153.804 17.1733 154.204 15.92C154.631 14.6667 155.324 13.56 156.284 12.6C157.271 11.6133 158.577 10.8267 160.204 10.24C161.857 9.65333 163.911 9.36 166.364 9.36C169.031 9.36 171.031 9.77333 172.364 10.6C173.724 11.4267 174.404 12.72 174.404 14.48C174.404 15.2 174.297 15.9867 174.084 16.84C173.871 17.6667 173.551 18.3733 173.124 18.96H161.884ZM167.204 14.2C167.204 13.3733 167.071 12.8133 166.804 12.52C166.537 12.2267 166.217 12.08 165.844 12.08C165.417 12.08 165.017 12.2267 164.644 12.52C164.297 12.7867 163.977 13.16 163.684 13.64C163.391 14.0933 163.124 14.6267 162.884 15.24C162.644 15.8267 162.444 16.4533 162.284 17.12H166.844C166.897 16.8 166.951 16.4667 167.004 16.12C167.057 15.8267 167.097 15.5067 167.124 15.16C167.177 14.8133 167.204 14.4933 167.204 14.2ZM182.799 27H174.639L180.319 0.119998H188.519L182.799 27ZM203.398 0.119998H211.598L205.878 27H199.398L198.678 24.44H198.398C198.238 24.68 197.984 24.9733 197.638 25.32C197.318 25.64 196.904 25.96 196.398 26.28C195.891 26.5733 195.291 26.8133 194.598 27C193.904 27.2133 193.104 27.32 192.198 27.32C191.264 27.32 190.464 27.1867 189.798 26.92C189.158 26.6267 188.624 26.24 188.198 25.76C187.798 25.28 187.504 24.7067 187.318 24.04C187.131 23.3467 187.038 22.6 187.038 21.8C187.038 21.4533 187.064 20.9067 187.118 20.16C187.171 19.3867 187.291 18.5467 187.478 17.64C187.691 16.7067 187.984 15.76 188.358 14.8C188.758 13.8133 189.278 12.92 189.918 12.12C190.584 11.32 191.398 10.6667 192.358 10.16C193.318 9.62667 194.478 9.36 195.838 9.36C196.264 9.36 196.718 9.4 197.198 9.48C197.678 9.56 198.131 9.70667 198.558 9.92C199.011 10.1333 199.411 10.44 199.758 10.84C200.104 11.24 200.358 11.76 200.518 12.4H200.798L203.398 0.119998ZM198.518 13.28C197.878 13.28 197.344 13.64 196.918 14.36C196.491 15.0533 196.144 15.8667 195.878 16.8C195.611 17.7333 195.411 18.6667 195.278 19.6C195.171 20.5333 195.118 21.2267 195.118 21.68C195.118 22.2133 195.198 22.6667 195.358 23.04C195.518 23.3867 195.824 23.56 196.278 23.56C196.544 23.56 196.798 23.5067 197.038 23.4C197.304 23.2667 197.544 23.12 197.758 22.96C197.998 22.7733 198.198 22.5867 198.358 22.4C198.518 22.2133 198.651 22.0533 198.758 21.92L200.318 14.64C200.131 14.3467 199.878 14.0533 199.558 13.76C199.264 13.44 198.918 13.28 198.518 13.28Z" fill="url(#paint0_linear_22_12)"/>
<defs>
<linearGradient id="paint0_linear_22_12" x1="105" y1="-12" x2="105" y2="38" gradientUnits="userSpaceOnUse">
<stop stop-color="#D9E4FF"/>
<stop offset="1" stop-color="#003BD0"/>
</linearGradient>
</defs>
</svg>
