<svg width="30" height="21" viewBox="0 0 30 21" fill="none" xmlns="http://www.w3.org/2000/svg">
<path fill-rule="evenodd" clip-rule="evenodd" d="M29.5834 2.16663C29.5834 2.49815 29.4517 2.81609 29.2172 3.05051C28.9828 3.28493 28.6649 3.41663 28.3334 3.41663H1.66669C1.33517 3.41663 1.01722 3.28493 0.782803 3.05051C0.548383 2.81609 0.416687 2.49815 0.416687 2.16663C0.416687 1.83511 0.548383 1.51716 0.782803 1.28274C1.01722 1.04832 1.33517 0.916626 1.66669 0.916626H28.3334C28.6649 0.916626 28.9828 1.04832 29.2172 1.28274C29.4517 1.51716 29.5834 1.83511 29.5834 2.16663ZM29.5834 10.5C29.5834 10.8315 29.4517 11.1494 29.2172 11.3838C28.9828 11.6183 28.6649 11.75 28.3334 11.75H1.66669C1.33517 11.75 1.01722 11.6183 0.782803 11.3838C0.548383 11.1494 0.416687 10.8315 0.416687 10.5C0.416687 10.1684 0.548383 9.8505 0.782803 9.61608C1.01722 9.38166 1.33517 9.24996 1.66669 9.24996H28.3334C28.6649 9.24996 28.9828 9.38166 29.2172 9.61608C29.4517 9.8505 29.5834 10.1684 29.5834 10.5ZM29.5834 18.8333C29.5834 19.1648 29.4517 19.4828 29.2172 19.7172C28.9828 19.9516 28.6649 20.0833 28.3334 20.0833H1.66669C1.33517 20.0833 1.01722 19.9516 0.782803 19.7172C0.548383 19.4828 0.416687 19.1648 0.416687 18.8333C0.416687 18.5018 0.548383 18.1838 0.782803 17.9494C1.01722 17.715 1.33517 17.5833 1.66669 17.5833H28.3334C28.6649 17.5833 28.9828 17.715 29.2172 17.9494C29.4517 18.1838 29.5834 18.5018 29.5834 18.8333Z" fill="black"/>
</svg>
