<svg width="24" height="24" viewBox="0 0 24 24" fill="none" xmlns="http://www.w3.org/2000/svg">
<path d="M12 3.50001C10.1435 3.50001 8.36301 4.23751 7.05025 5.55026C5.7375 6.86302 5 8.64349 5 10.5C5 12.3565 5.7375 14.137 7.05025 15.4498C8.36301 16.7625 10.1435 17.5 12 17.5C13.8565 17.5 15.637 16.7625 16.9497 15.4498C18.2625 14.137 19 12.3565 19 10.5C19 8.64349 18.2625 6.86302 16.9497 5.55026C15.637 4.23751 13.8565 3.50001 12 3.50001ZM3 10.5C3.00014 8.76266 3.50313 7.06248 4.44826 5.6047C5.39338 4.14692 6.74024 2.99385 8.32626 2.28468C9.91228 1.5755 11.6697 1.34054 13.3863 1.60814C15.1029 1.87575 16.7054 2.63449 18.0003 3.79278C19.2952 4.95106 20.2271 6.45938 20.6837 8.13567C21.1402 9.81197 21.1019 11.5846 20.5732 13.2395C20.0445 14.8945 19.0481 16.361 17.7042 17.4622C16.3604 18.5633 14.7266 19.252 13 19.445V20.951C14.7096 20.7817 16.3461 20.1722 17.75 19.182L18.568 18.607L19.719 20.242L18.902 20.818C16.8823 22.2414 14.4709 23.0037 12 23C9.52907 23.0037 7.11775 22.2414 5.098 20.818L4.28 20.242L5.432 18.607L6.25 19.182C7.65386 20.1722 9.2904 20.7817 11 20.951V19.445C8.79979 19.199 6.76744 18.1507 5.29155 16.5005C3.81567 14.8502 2.99982 12.7139 3 10.5ZM12 8.50001C11.4696 8.50001 10.9609 8.71072 10.5858 9.0858C10.2107 9.46087 10 9.96958 10 10.5C10 11.0304 10.2107 11.5392 10.5858 11.9142C10.9609 12.2893 11.4696 12.5 12 12.5C12.5304 12.5 13.0391 12.2893 13.4142 11.9142C13.7893 11.5392 14 11.0304 14 10.5C14 9.96958 13.7893 9.46087 13.4142 9.0858C13.0391 8.71072 12.5304 8.50001 12 8.50001ZM8 10.5C8 9.43914 8.42143 8.42173 9.17157 7.67158C9.92172 6.92144 10.9391 6.50001 12 6.50001C13.0609 6.50001 14.0783 6.92144 14.8284 7.67158C15.5786 8.42173 16 9.43914 16 10.5C16 11.5609 15.5786 12.5783 14.8284 13.3284C14.0783 14.0786 13.0609 14.5 12 14.5C10.9391 14.5 9.92172 14.0786 9.17157 13.3284C8.42143 12.5783 8 11.5609 8 10.5Z" fill="black"/>
</svg>
