<svg width="17" height="20" viewBox="0 0 17 20" fill="none" xmlns="http://www.w3.org/2000/svg">
<path d="M14.0002 0V2L10.0002 1.999V4H13.0002V6C15.2093 6 17.0002 7.79086 17.0002 10V18C17.0002 19.1046 16.1048 20 15.0002 20H3.0002C1.89562 20 1.0002 19.1046 1.0002 18V10C1.0002 7.79086 2.79106 6 5.0002 6V4H8.0002V1.999L4.5002 2C3.87019 2 3.1302 2.49 2.3002 3.6L0.700195 2.4C1.8702 0.84 3.1302 0 4.5002 0H14.0002ZM13.0002 8H5.0002C3.89563 8 3.0002 8.8954 3.0002 10V18H15.0002V10C15.0002 8.8954 14.1048 8 13.0002 8ZM10.0002 10V12H12.0002V14H9.9992L10.0002 16H8.0002L7.9992 14H6.0002V12H8.0002V10H10.0002Z" fill="black"/>
</svg>
